<svg width="17" height="17" viewBox="0 0 17 17" fill="none" xmlns="http://www.w3.org/2000/svg">
<path d="M12.24 1.06249C13.0987 1.06436 13.9217 1.40078 14.5289 1.99814C15.1361 2.5955 15.4781 3.40516 15.48 4.24995V12.0415C15.4781 12.8863 15.1361 13.696 14.5289 14.2933C13.9217 14.8907 13.0987 15.2271 12.24 15.229H4.32C3.46253 15.2253 2.64137 14.888 2.03572 14.2909C1.43007 13.6937 1.08909 12.8851 1.0872 12.0415V4.24995C1.08909 3.40638 1.43007 2.59779 2.03572 2.00063C2.64137 1.40347 3.46253 1.06623 4.32 1.06249H12.24ZM12.24 0H4.32C3.17426 0 2.07546 0.447762 1.2653 1.24478C0.455141 2.0418 0 3.1228 0 4.24995L0 12.0415C0 13.1687 0.455141 14.2497 1.2653 15.0467C2.07546 15.8437 3.17426 16.2915 4.32 16.2915H12.24C13.3857 16.2915 14.4845 15.8437 15.2947 15.0467C16.1049 14.2497 16.56 13.1687 16.56 12.0415V4.24995C16.56 3.1228 16.1049 2.0418 15.2947 1.24478C14.4845 0.447762 13.3857 0 12.24 0V0Z" fill="#192144"/>
<path d="M8.28694 5.01416C8.91778 5.01416 9.53446 5.19819 10.059 5.54298C10.5835 5.88778 10.9923 6.37785 11.2337 6.95122C11.4752 7.5246 11.5383 8.15552 11.4153 8.76421C11.2922 9.3729 10.9884 9.93202 10.5423 10.3709C10.0963 10.8097 9.52792 11.1086 8.9092 11.2296C8.29047 11.3507 7.64915 11.2886 7.06633 11.0511C6.4835 10.8136 5.98536 10.4114 5.63488 9.89535C5.2844 9.37933 5.09733 8.77265 5.09733 8.15204C5.09639 7.7397 5.17824 7.33125 5.3382 6.95012C5.49815 6.56899 5.73306 6.2227 6.02943 5.93114C6.3258 5.63957 6.6778 5.40847 7.06521 5.25111C7.45261 5.09375 7.86781 5.01322 8.28694 5.01416V5.01416ZM8.28694 3.95167C7.44218 3.95026 6.61599 4.19542 5.91291 4.65611C5.20983 5.1168 4.66147 5.77232 4.33721 6.53971C4.01295 7.30711 3.92737 8.15188 4.0913 8.96714C4.25523 9.7824 4.6613 10.5315 5.25812 11.1196C5.85495 11.7078 6.61571 12.1085 7.44413 12.2712C8.27254 12.4338 9.13139 12.3511 9.91198 12.0334C10.6926 11.7156 11.3598 11.1773 11.8293 10.4864C12.2987 9.79548 12.5493 8.9831 12.5493 8.15204C12.5503 7.60077 12.4407 7.05473 12.227 6.54516C12.0132 6.03559 11.6994 5.57249 11.3035 5.18236C10.9076 4.79222 10.4374 4.48271 9.91975 4.27154C9.40214 4.06036 8.84729 3.95167 8.28694 3.95167Z" fill="#192144"/>
<path d="M12.7081 4.76013C13.2409 4.76013 13.6729 4.33518 13.6729 3.81097C13.6729 3.28677 13.2409 2.86182 12.7081 2.86182C12.1752 2.86182 11.7433 3.28677 11.7433 3.81097C11.7433 4.33518 12.1752 4.76013 12.7081 4.76013Z" fill="#192144"/>
</svg>
