<svg width="31" height="16" fill="none" xmlns="http://www.w3.org/2000/svg"><path d="M23.95 15.78a4.05 4.05 0 01-2.08-.63c-.65-.44-1.25-.96-1.78-1.53-.44-.44-1.17-1.18-1.45-1.18s-.48.92-.47 1.57c0 .45-.17.88-.47 1.2-.35.3-.78.47-1.22.5h-1.92a11.32 11.32 0 01-7.43-3C3.45 9.36.29 2.92.16 2.64A1.34 1.34 0 01.3 1.15c.38-.32.86-.5 1.36-.48h4.2c.33.05.66.17.95.35.27.18.49.43.63.73.43.92.92 1.81 1.48 2.67 1.3 2 1.89 2.46 2.1 2.56.23-.94.3-1.91.19-2.87A2.7 2.7 0 0011 2.83a1.33 1.33 0 00-.77-.3l-.73-.68C9.37 1.19 10.1.62 10.6.4a8.69 8.69 0 013.15-.38h.7c.73-.02 1.45.05 2.16.2 1.7.36 1.64 1.73 1.57 3.3 0 .47-.05 1-.05 1.63v.48c-.04.43-.01.87.09 1.3a9.1 9.1 0 002.07-2.48 20.4 20.4 0 001.52-2.8 1.58 1.58 0 011.6-.95h4.28a2 2 0 01.38 0c1 0 1.59.29 1.83.85s.17 1.66-2.36 4.6l-1 1.14c-.49.47-.9 1-1.24 1.59.37.43.8.81 1.28 1.14 1.15.86 2.16 1.9 3 3.07a1.6 1.6 0 01.26 1.68 2.3 2.3 0 01-1.88 1l-3.8.05-.22-.04zm-5.31-4.84c.9 0 1.68.79 2.5 1.62.45.49.96.92 1.5 1.3.42.27.9.42 1.4.42h.1l3.8-.05c.2-.01.38-.06.55-.14l-.1-.16a13.22 13.22 0 00-2.68-2.72c-1.2-1-1.8-1.47-1.87-2.24-.07-.77.49-1.44 1.6-2.71l1-1.11c.85-.86 1.54-1.86 2.06-2.95a5.66 5.66 0 00-.67 0h-4.37a.55.55 0 00-.24 0 20.5 20.5 0 01-1.65 3.05c-1.9 2.82-2.78 3.2-3.41 3.2-.2 0-.4-.05-.56-.14-1-.57-1-1.84-.94-2.76v-.43c0-.65 0-1.21.05-1.7.08-1.67 0-1.68-.38-1.77a8.56 8.56 0 00-1.86-.16h-.7a13 13 0 00-1.9.1c.1.07.19.15.26.25.4.65.61 1.4.59 2.18.13 1.65.06 3.8-1 4.32-.2.09-.4.13-.6.13-.93 0-1.85-.88-3.42-3.26-.6-.91-1.14-1.87-1.61-2.85L6 2.26c-.1-.05-.21-.1-.32-.11H1.62C2.2 3.37 5 8.77 8.14 11.6a10 10 0 006.42 2.63h1.85a1 1 0 00.27-.1v-.1c0-.26 0-2.6 1.58-3l.38-.1z" fill="#192144"/></svg>