<svg width="17" height="13" viewBox="0 0 17 13" fill="none" xmlns="http://www.w3.org/2000/svg">
<path d="M0.516601 1.3503L7.2666 5.58075C7.4934 5.7225 7.7868 5.7897 8.082 5.7897C8.3772 5.7897 8.6706 5.7225 8.8974 5.58075L15.6474 1.3503C16.0875 1.07415 16.5033 0 15.696 0H0.468901C-0.338399 0 0.0774014 1.07415 0.516601 1.3503ZM15.8517 3.66345L8.8974 7.8918C8.5914 8.0787 8.3772 8.10075 8.082 8.10075C7.7868 8.10075 7.5726 8.0787 7.2666 7.8918C6.9606 7.7049 0.846901 3.96585 0.347401 3.6624C-0.00359852 3.4482 1.45446e-06 3.69915 1.45446e-06 3.89235V11.55C1.45446e-06 11.991 0.509401 12.6 0.900001 12.6H15.3C15.6906 12.6 16.2 11.991 16.2 11.55V3.8934C16.2 3.7002 16.2036 3.44925 15.8517 3.66345Z" fill="#161C35"/>
</svg>
